<?xml version="1.0" encoding="UTF-8" standalone="no"?>
<svg
   width="62"
   height="62"
   viewBox="0 0 62 62"
   version="1.1"
   id="svg5"
   sodipodi:docname="favicon.svg"
   xmlns:inkscape="http://www.inkscape.org/namespaces/inkscape"
   xmlns:sodipodi="http://sodipodi.sourceforge.net/DTD/sodipodi-0.dtd"
   xmlns:xlink="http://www.w3.org/1999/xlink"
   xmlns="http://www.w3.org/2000/svg"
   xmlns:svg="http://www.w3.org/2000/svg">
  <defs
     id="defs5">
    <linearGradient
       id="linearGradient5"
       inkscape:collect="always">
      <stop
         style="stop-color:#fae0e0;stop-opacity:0;"
         offset="0.34230417"
         id="stop6" />
      <stop
         style="stop-color:#89dff0;stop-opacity:1;"
         offset="1"
         id="stop5" />
    </linearGradient>
    <radialGradient
       inkscape:collect="always"
       xlink:href="#linearGradient5"
       id="radialGradient6"
       cx="32"
       cy="32"
       fx="32"
       fy="32"
       r="31"
       gradientUnits="userSpaceOnUse"
       gradientTransform="translate(-1,-1)" />
    <radialGradient
       inkscape:collect="always"
       xlink:href="#linearGradient5-6"
       id="radialGradient6-3"
       cx="32"
       cy="32"
       fx="32"
       fy="32"
       r="31"
       gradientUnits="userSpaceOnUse"
       gradientTransform="translate(-1,-1)" />
    <linearGradient
       id="linearGradient5-6"
       inkscape:collect="always">
      <stop
         style="stop-color:#fae0e0;stop-opacity:0;"
         offset="0.40457588"
         id="stop6-7" />
      <stop
         style="stop-color:#89dff0;stop-opacity:1;"
         offset="0.69999999"
         id="stop5-5" />
    </linearGradient>
  </defs>
  <sodipodi:namedview
     id="namedview5"
     pagecolor="#ffffff"
     bordercolor="#000000"
     borderopacity="0.25"
     inkscape:showpageshadow="2"
     inkscape:pageopacity="0.0"
     inkscape:pagecheckerboard="0"
     inkscape:deskcolor="#d1d1d1">
    <inkscape:page
       x="0"
       y="0"
       width="62"
       height="62"
       id="page2"
       margin="0"
       bleed="0" />
  </sodipodi:namedview>
  <!-- Background Circle -->
  <circle
     cx="31"
     cy="31"
     r="30"
     fill="#E0F7FA"
     stroke="#007bff"
     stroke-width="2"
     id="circle1"
     style="fill:url(#radialGradient6)" />
  <circle
     cx="31"
     cy="31"
     r="30"
     fill="#E0F7FA"
     stroke="#007bff"
     stroke-width="2"
     id="circle1-5"
     style="fill:url(#radialGradient6-3)" />
  <!-- Face -->
  <path
     d="M 19,19 Q 31,9 43,19 V 34 Q 43,49 31,51 19,49 19,34 Z"
     fill="#ffdcb1"
     id="path1" />
  <!-- Hair (Blonde, Short) -->
  <path
     d="m 17,21 c 0,-8 4.666667,-12.6666667 14,-14 9.333333,1.3333333 14,6 14,14 0,-2.666667 -1.333333,0.666667 -4,-2 -6.666667,-2.666667 -13.333333,-2.666667 -20,0 -2.666667,2.666667 -4,-0.666667 -4,2 z"
     fill="#f0e68c"
     id="path2"
     sodipodi:nodetypes="cccccc" />
  <!-- Beard (Short, Full - Light Brown/Dark Blonde) -->
  <path
     d="M 19,34 Q 19,49 31,51 43,49 43,34 V 29 Q 43,44 31,46 19,44 19,29 Z"
     fill="#daa520"
     id="path3" />
  <path
     d="m 25,41 q 6,2 12,0"
     stroke="#daa520"
     stroke-width="1"
     fill="none"
     id="path4" />
  <!-- Mouth hint inside beard -->
  <!-- Eyes -->
  <circle
     cx="25"
     cy="27"
     r="2"
     fill="#333333"
     id="circle4" />
  <circle
     cx="37"
     cy="27"
     r="2"
     fill="#333333"
     id="circle5" />
  <!-- Nose -->
  <path
     d="m 31,27 -2,8 h 4 z"
     fill="#e0c09e"
     id="path5" />
</svg>
